<svg width="284" height="845" viewBox="0 0 284 845" fill="none" xmlns="http://www.w3.org/2000/svg">
<g clip-path="url(#clip0_275_2)">
<path d="M238.133 798.999L232.462 798.167L250.557 674.737L250.89 674.786C253.654 675.191 256.223 673.279 256.628 670.516C257.033 667.752 255.121 665.183 252.357 664.778L252.024 664.729L252.855 659.058C253.26 656.295 251.348 653.726 248.585 653.321C245.821 652.916 243.253 654.828 242.847 657.591L242.016 663.262L155.948 650.645L161.523 612.615L161.857 612.664C164.621 613.069 167.189 611.157 167.595 608.394C168 605.63 166.088 603.061 163.324 602.656L162.991 602.607L163.822 596.936C164.227 594.173 162.315 591.604 159.552 591.199C156.788 590.794 154.219 592.706 153.814 595.469L152.983 601.14L66.9152 588.523L72.4902 550.493L72.8238 550.542C75.5873 550.947 78.1562 549.035 78.5613 546.272C78.9664 543.508 77.0544 540.939 74.2909 540.534L73.9573 540.485L74.7887 534.814C75.1938 532.051 73.2818 529.482 70.5183 529.077C67.7548 528.672 65.186 530.584 64.7808 533.347L63.9495 539.018L-22.1181 526.401L-21.2867 520.73C-20.8816 517.966 -22.7936 515.397 -25.5571 514.992C-28.3206 514.587 -30.8895 516.499 -31.2946 519.263L-32.126 524.934L-32.4596 524.885C-35.2231 524.48 -37.7919 526.392 -38.197 529.155C-38.6022 531.919 -36.6902 534.488 -33.9267 534.893L-33.5931 534.942L-65.7718 754.447L-71.4429 753.616C-74.2064 753.211 -76.7753 755.123 -77.1804 757.886C-77.5855 760.65 -75.6736 763.219 -72.9101 763.624L-51.56 766.754C-48.7965 767.159 -46.2276 765.247 -45.8225 762.483C-45.4173 759.72 -47.3293 757.151 -50.0928 756.746L-55.764 755.914L-23.5852 536.409L62.4824 549.026L56.9073 587.056L56.5737 587.007C53.8102 586.602 51.2414 588.514 50.8362 591.277C50.4311 594.041 52.3431 596.61 55.1066 597.015L55.4402 597.064L30.3036 768.532L24.6325 767.7C21.869 767.295 19.3001 769.207 18.895 771.971C18.4899 774.734 20.4019 777.303 23.1654 777.708L44.5155 780.838C47.279 781.243 49.8478 779.331 50.253 776.568C50.6581 773.804 48.7461 771.235 45.9826 770.83L40.3115 769.999L65.4481 598.531L151.516 611.148L145.941 649.178L145.607 649.129C142.843 648.724 140.275 650.636 139.87 653.399C139.464 656.163 141.376 658.732 144.14 659.137L144.473 659.186L126.379 782.616L120.708 781.785C117.944 781.379 115.376 783.291 114.97 786.055C114.565 788.818 116.477 791.387 119.241 791.792L140.591 794.922C143.354 795.327 145.923 793.415 146.328 790.652C146.734 787.888 144.822 785.32 142.058 784.914L136.387 784.083L154.481 660.653L240.549 673.27L222.454 796.7L216.783 795.869C214.02 795.464 211.451 797.376 211.046 800.139C210.641 802.903 212.553 805.472 215.316 805.877L236.666 809.007C239.43 809.412 241.999 807.5 242.404 804.736C242.809 801.973 240.897 799.404 238.133 798.999Z" fill="black" fill-opacity="0.3"/>
</g>
<g clip-path="url(#clip1_275_2)">
<path d="M216.967 100.212L235.408 82.136C236.341 81.2018 236.945 79.7734 236.945 78.345C236.945 76.8616 236.396 75.4881 235.353 74.4441L216.692 55.7643L235.353 37.4689C236.396 36.4249 236.999 35.0514 236.999 33.5681C236.999 32.0848 236.451 30.7113 235.408 29.6673L207.362 1.59317C206.319 0.54918 204.948 0 203.466 0C201.984 0 200.612 0.604098 199.569 1.64809L181.292 20.3279L162.632 1.64809C161.589 0.604098 160.162 0.054918 158.735 0.054918C157.254 0.054918 155.881 0.659016 154.838 1.70301L136.781 20.1632L118.34 1.70301C116.2 -0.439893 112.742 -0.439893 110.602 1.70301L82.5557 29.7777C81.5128 30.8216 80.9641 32.1951 80.9641 33.6785C80.9641 35.1618 81.5677 36.5353 82.5557 37.5793L123.444 78.5103L47.5394 154.493L6.6507 113.562C5.60781 112.518 4.23596 111.969 2.75372 111.969C1.27203 111.969 -0.100368 112.573 -1.14326 113.562L-29.2986 141.417C-31.4393 143.56 -31.4393 147.021 -29.2986 149.163L-10.8577 167.624L-29.3536 185.644C-30.3965 186.688 -31 188.061 -31 189.545C-31 191.028 -30.4514 192.401 -29.4085 193.445L-10.638 212.235L-29.2986 230.531C-30.3415 231.575 -30.9451 232.948 -30.9451 234.431C-30.9451 235.915 -30.3965 237.288 -29.3536 238.332L-1.30747 266.407C-0.264572 267.451 1.10728 268 2.58952 268C4.07121 268 5.44361 267.396 6.4865 266.352L24.7632 247.672L43.3689 266.297C44.4118 267.341 45.7837 267.89 47.2659 267.89C48.7481 267.89 50.12 267.286 51.1629 266.242L69.3298 247.837L87.8256 266.352C88.9234 267.451 90.2953 267.945 91.7226 267.945C93.1494 267.945 94.5218 267.396 95.6196 266.352L123.666 238.277C125.806 236.134 125.806 232.673 123.666 230.531L82.777 189.6L158.682 113.617L199.571 154.548C200.668 155.646 202.04 156.141 203.468 156.141C204.895 156.141 206.267 155.592 207.365 154.548L235.411 126.473C236.454 125.429 237.002 124.055 237.002 122.572C237.002 121.089 236.399 119.715 235.411 118.671L216.967 100.212ZM203.466 13.2407L223.663 33.4588L208.9 47.9632L198.965 38.0192L189.031 28.0752L203.466 13.2407ZM158.68 13.2407L223.663 78.2357L209.119 92.5753L144.41 27.8001L158.68 13.2407ZM2.58952 254.759L-17.6077 234.541L-2.84407 220.037L17.0791 239.98L2.58952 254.759ZM47.2648 254.704L28.6591 236.079L1.05236 208.444L-17.6632 189.709L-3.06375 175.48L29.2632 207.839L61.6451 240.254L47.2648 254.704ZM111.974 234.541L91.7215 254.814L73.2256 236.299L0.832689 163.833L-17.6632 145.318L2.58897 125.045L111.974 234.541ZM74.9814 181.908L55.1131 162.02L131.018 86.0368L150.886 105.925L74.9814 181.908ZM203.411 142.955L157.912 97.4098L134.916 74.3898L94.0264 33.4588L114.279 13.1858L132.774 31.7009L205.167 104.167L223.663 122.682L203.411 142.955Z" fill="black" fill-opacity="0.3"/>
</g>
<defs>
<clipPath id="clip0_275_2">
<rect width="323" height="323" fill="white" transform="translate(-36.1501 478) rotate(8.33995)"/>
</clipPath>
<clipPath id="clip1_275_2">
<rect width="268" height="268" fill="white" transform="translate(-31)"/>
</clipPath>
</defs>
</svg>
