<svg width="272" height="806" viewBox="0 0 272 806" fill="none" xmlns="http://www.w3.org/2000/svg">
<g clip-path="url(#clip0_275_3)">
<path d="M313.784 741.859L293.952 690.165C293.687 689.457 287.253 672.831 270.012 672.831H234.152L234.368 666.002C234.407 664.783 233.522 663.73 232.315 663.556L162.968 653.597L163.688 631.915C180.195 624.777 190.57 607.2 187.818 588.584C184.533 566.373 163.794 550.974 141.581 554.26C130.822 555.851 121.327 561.537 114.843 570.27C108.36 579.003 105.667 589.737 107.258 600.497C109.504 615.691 119.92 627.694 133.386 632.712L132.406 662.338C124.618 668.02 119.971 676.519 119.971 685.106V689.351C119.971 699.246 126.087 707.214 136.255 711.435H98.3745C107.871 706.446 111.848 699.227 112.624 697.665C116.734 692.594 118.823 686.06 118.823 678.235C118.823 661.267 105.018 647.462 88.0492 647.462C79.9771 647.462 73.1263 650.11 67.6439 655.323C66.2214 654.254 64.7601 653.739 63.2243 653.739C59.0263 653.739 55.8765 657.807 53.8718 660.867C47.6691 670.338 46.3498 681.191 50.057 692.252C52.1614 698.53 57.752 707.904 67.3176 712.769C65.145 714.208 63.7073 716.671 63.7073 719.467V727.92C63.7073 732.348 67.3103 735.951 71.7383 735.951H100.947L71.0039 787.585C70.5739 788.325 70.5728 789.239 71.0005 789.981C71.4283 790.724 72.2195 791.181 73.0762 791.181H84.3477C85.202 791.181 85.991 790.726 86.4199 789.987L117.756 735.951H206.724L238.06 789.987C238.489 790.726 239.278 791.181 240.133 791.181H251.308C252.165 791.181 252.956 790.724 253.384 789.981C253.812 789.239 253.81 788.325 253.38 787.585L223.438 735.951H252.646C257.074 735.951 260.677 732.348 260.677 727.92V719.467C260.677 715.038 257.074 711.436 252.646 711.436H232.933L233.121 705.518H253.668C260.515 705.518 262.597 711.016 262.675 711.233C262.686 711.263 262.697 711.292 262.709 711.321L279.764 754.947C282.548 762.181 289.471 766.628 296.795 766.628C298.967 766.628 301.174 766.237 303.319 765.411C312.698 761.803 317.392 751.236 313.784 741.859ZM94.328 653.024V659.546C94.328 665.202 98.9284 669.802 104.583 669.802H107.629C108.953 669.802 110.025 668.73 110.025 667.407C110.025 666.084 108.953 665.012 107.629 665.012H104.583C101.57 665.012 99.1184 662.56 99.1184 659.546V654.734C100.605 655.437 102.013 656.278 103.329 657.238V660.81C103.329 662.133 104.401 663.205 105.724 663.205C106.773 663.205 107.655 662.526 107.979 661.587C111.754 666.099 114.032 671.905 114.032 678.235C114.032 684.189 112.67 689.214 109.977 693.206C108.754 692.703 107.298 692.441 105.603 692.441C101.339 692.441 96.7959 694.053 96.6048 694.121C95.9043 694.373 95.3605 694.935 95.1333 695.644C94.4897 697.645 92.644 698.991 90.5396 698.991C87.8796 698.991 85.7155 696.827 85.7155 694.167C85.7155 691.507 87.8796 689.343 90.5396 689.343H101.243C102.566 689.343 103.638 688.27 103.638 686.948V679.977C103.638 678.717 102.66 677.671 101.402 677.587C100.59 677.533 99.4537 677.665 97.9878 677.849C96.2481 678.066 94.084 678.337 91.7474 678.337C83.7367 678.338 78.677 675.14 75.8242 668.272C74.1571 664.259 72.5368 661.137 70.9025 658.83C75.517 654.413 81.1432 652.252 88.0498 652.252C90.2139 652.253 92.3166 652.523 94.328 653.024ZM54.5994 690.73C51.3295 680.972 52.433 671.808 57.88 663.492C60.708 659.174 62.4427 658.529 63.2243 658.529C64.2365 658.529 67.0583 659.658 71.4001 670.11C74.9884 678.748 81.8347 683.128 91.7474 683.128C94.3821 683.128 96.8094 682.823 98.5824 682.602C98.6715 682.591 98.7599 682.579 98.8473 682.569V684.552H90.5396C85.2387 684.552 80.9251 688.865 80.9251 694.167C80.9251 699.468 85.2381 703.781 90.5396 703.781C94.297 703.781 97.6412 701.628 99.2181 698.31C100.758 697.854 103.362 697.231 105.603 697.231C106.221 697.231 106.776 697.278 107.256 697.368C105.3 700.321 100.64 705.904 91.8398 709.09C88.0357 710.468 84.3308 711.166 80.827 711.166H80.8259C65.5316 711.166 57.1445 698.32 54.5994 690.73ZM82.9686 786.391H77.2348L106.485 735.951H112.219L82.9686 786.391ZM247.15 786.391H241.512L212.262 735.951H217.9L247.15 786.391ZM255.88 719.326H201.537C200.214 719.326 199.142 720.398 199.142 721.721C199.142 723.044 200.214 724.116 201.537 724.116H255.887V727.92C255.887 729.707 254.434 731.161 252.647 731.161H71.7394C69.9523 731.161 68.4988 729.707 68.4988 727.92V719.467C68.4988 717.68 69.9523 716.226 71.7394 716.226H252.647C254.385 716.226 255.805 717.604 255.88 719.326ZM111.997 599.796C110.593 590.303 112.97 580.831 118.69 573.125C124.41 565.42 132.789 560.403 142.283 558.999C161.88 556.102 180.181 569.688 183.08 589.285C185.978 608.883 172.391 627.184 152.794 630.082C133.193 632.979 114.895 619.394 111.997 599.796ZM147.511 635.262C149.484 635.262 151.485 635.118 153.494 634.82C155.325 634.55 157.105 634.149 158.837 633.65L157.394 677.135C157.186 682.83 152.36 687.296 146.689 687.088C140.994 686.88 136.528 682.077 136.735 676.374L138.132 634.154C141.163 634.877 144.305 635.262 147.511 635.262ZM124.761 689.351V685.107C124.761 679.218 127.488 673.336 132.194 668.769L131.948 676.208C131.646 684.543 138.18 691.571 146.515 691.875C146.701 691.882 146.886 691.885 147.071 691.885C155.16 691.885 161.885 685.457 162.182 677.302L162.808 658.415L206.688 664.716V689.09C206.688 690.413 207.76 691.486 209.083 691.486C210.406 691.486 211.478 690.413 211.478 689.09V665.404L229.511 667.994L228.197 709.616H148.532C137.535 708.356 124.761 702.305 124.761 689.351ZM253.668 700.728H233.272L234.001 677.621H270.012C283.896 677.621 289.247 691.271 289.473 691.864L301.36 722.848L297.438 724.361C296.204 724.837 295.59 726.224 296.066 727.458C296.432 728.409 297.34 728.991 298.301 728.991C298.588 728.991 298.879 728.94 299.163 728.83L303.075 727.32L305.377 733.321L280.322 743.219L267.181 709.606C266.868 708.752 263.654 700.728 253.668 700.728ZM301.598 760.941C294.684 763.602 286.896 760.141 284.23 753.215L282.066 747.68L307.094 737.793L309.312 743.577C311.973 750.491 308.512 758.28 301.598 760.941Z" fill="black" fill-opacity="0.3"/>
<path d="M147.532 603.699C147.976 603.699 148.426 603.667 148.877 603.6C153.873 602.862 157.336 598.197 156.598 593.2C156.24 590.78 154.961 588.645 152.997 587.187C151.033 585.729 148.62 585.122 146.198 585.481C143.778 585.839 141.642 587.117 140.184 589.082C138.726 591.046 138.12 593.461 138.478 595.88C139.151 600.423 143.07 603.699 147.532 603.699ZM144.031 591.937C144.726 591 145.745 590.39 146.899 590.22C147.116 590.188 147.333 590.172 147.547 590.172C148.477 590.172 149.38 590.469 150.141 591.034C151.078 591.729 151.688 592.747 151.859 593.901C152.21 596.284 150.559 598.509 148.177 598.861H148.176C145.8 599.211 143.569 597.562 143.217 595.179C143.047 594.025 143.335 592.874 144.031 591.937Z" fill="black" fill-opacity="0.3"/>
<path d="M151.99 624.646C153.298 624.452 154.203 623.235 154.009 621.926C153.815 620.617 152.6 619.711 151.289 619.907C144.514 620.909 137.753 619.212 132.254 615.129C126.754 611.047 123.173 605.067 122.171 598.291C121.978 596.983 120.765 596.076 119.452 596.273C118.144 596.466 117.239 597.684 117.433 598.992C118.621 607.034 122.871 614.131 129.398 618.976C134.7 622.912 140.989 624.979 147.474 624.979C148.972 624.98 150.48 624.869 151.99 624.646Z" fill="black" fill-opacity="0.3"/>
<path d="M166.596 701.573H198.156C199.479 701.573 200.551 700.501 200.551 699.178C200.551 697.855 199.479 696.783 198.156 696.783H166.596C165.272 696.783 164.2 697.855 164.2 699.178C164.2 700.501 165.272 701.573 166.596 701.573Z" fill="black" fill-opacity="0.3"/>
</g>
<g clip-path="url(#clip1_275_3)">
<path d="M92.9548 222.518C95.1586 223.11 97.425 221.803 98.0168 219.6C98.6087 217.396 97.3019 215.129 95.0981 214.537C92.8942 213.946 90.6279 215.252 90.036 217.456C89.4442 219.66 90.7509 221.926 92.9548 222.518Z" fill="black" fill-opacity="0.3"/>
<path d="M220.97 134.542C221.037 134.503 221.105 134.464 221.172 134.425C224.183 131.925 250.4 109.703 252.075 91.7853C253.188 78.508 246.156 63.2717 234.865 54.7633C234.812 54.749 234.773 54.6815 234.72 54.6673C221.396 45.4418 202.868 37.3288 182.491 31.8563C162.113 26.3837 142.173 24.1662 126.34 25.5613C126.287 25.547 126.219 25.5859 126.219 25.5859C111.702 27.3915 97.7317 36.9306 92.1393 48.8337C92.125 48.8869 92.0964 48.9933 92.0289 49.0322C85.3427 65.4332 96.8616 97.7324 98.2143 101.404C97.4861 101.779 96.7437 102.207 96.0013 102.635C74.8225 114.802 59.6597 134.517 53.3156 158.14C46.9857 181.71 50.2605 206.262 62.5375 227.242C74.8145 248.222 94.6785 263.254 118.568 269.67C142.457 276.085 167.3 273.002 188.634 261.106C209.997 249.103 225.291 229.537 231.606 206.021C238.327 180.787 233.719 155.25 220.97 134.542ZM99.6707 52.2253C104.095 42.9746 115.641 35.2375 127.213 33.7816C158.01 31.043 204.085 43.4169 230.005 61.3871C238.961 68.1844 244.798 80.6471 243.896 91.0148C242.778 103.036 224.034 121.218 216.357 127.713C213.536 123.989 210.497 120.435 207.107 117.129C212.984 112.661 222.513 104.153 222.844 95.9139C223.505 87.0788 218.134 77.7647 209.509 72.7103C191.495 61.1985 160.689 52.9255 139.278 53.8495C129.228 53.8885 119.9 59.3122 116.032 67.3432C116.018 67.3964 116.018 67.3964 116.003 67.4496C112.818 74.6372 116.435 86.4466 119.123 93.2151C114.586 94.3924 110.123 95.9318 105.747 97.78C102.241 88.1109 95.1868 63.3994 99.6707 52.2253ZM200.765 111.433C190.858 103.296 179.058 97.1039 165.81 93.546C153.041 90.1168 139.93 89.4478 127.293 91.4731C124.395 84.4203 121.797 74.7668 123.497 70.774C125.965 65.6185 132.455 62.0564 139.297 62.0685C139.35 62.0828 139.417 62.0438 139.471 62.0581C159.104 61.1701 188.473 69.0573 205.019 79.6616C205.073 79.6759 205.112 79.7434 205.165 79.7577C211.145 83.1892 214.963 89.5765 214.517 95.2749C214.502 95.3281 214.488 95.3813 214.527 95.4488C214.398 99.7494 207.019 106.838 200.765 111.433ZM120.726 261.636C76.1932 249.676 49.5091 204.178 61.3114 160.23C73.2138 115.91 119.134 89.5673 163.72 101.541C208.625 113.601 235.49 159.49 223.588 203.81C211.784 247.757 165.63 273.695 120.726 261.636Z" fill="black" fill-opacity="0.3"/>
<path d="M91.276 156.127C91.8618 153.946 90.5386 151.651 88.3572 151.065C86.1758 150.479 83.881 151.802 83.2952 153.984C78.8514 170.531 79.3637 187.952 84.8492 204.484C85.333 205.869 86.4384 206.851 87.7154 207.194C88.4602 207.394 89.2623 207.381 90.1357 207.102C92.2734 206.364 93.4627 204.06 92.739 201.869C87.7484 186.895 87.2609 171.078 91.276 156.127Z" fill="black" fill-opacity="0.3"/>
</g>
<defs>
<clipPath id="clip0_275_3">
<rect width="267" height="267" fill="white" transform="translate(48 539)"/>
</clipPath>
<clipPath id="clip1_275_3">
<rect width="246.255" height="246.255" fill="white" transform="translate(63.8699) rotate(15.0324)"/>
</clipPath>
</defs>
</svg>
