<svg width="47" height="47" viewBox="0 0 47 47" fill="none" xmlns="http://www.w3.org/2000/svg">
<path d="M25.5222 36.6491L25.3404 14.4124L33.5707 21.1516C33.9562 21.4667 34.4511 21.6158 34.9465 21.566C35.4419 21.5162 35.8973 21.2717 36.2124 20.8862C36.5275 20.5007 36.6766 20.0058 36.6268 19.5104C36.5771 19.015 36.3325 18.5597 35.947 18.2445L24.6208 8.96184C24.5308 8.8995 24.4363 8.84386 24.3381 8.79539C24.2444 8.79616 24.1882 8.79662 24.0933 8.66614C23.8777 8.58291 23.6485 8.54029 23.4173 8.54041C23.1861 8.54407 22.9577 8.59043 22.7434 8.67718C22.6496 8.67794 22.5934 8.6784 22.5007 8.81042C22.4034 8.86049 22.3098 8.91766 22.2208 8.98146L11.0479 18.4481C10.8377 18.6261 10.6693 18.8483 10.5547 19.0988C10.44 19.3493 10.382 19.6219 10.3847 19.8974C10.3874 20.3354 10.5435 20.7588 10.8258 21.0938C10.9847 21.2824 11.1793 21.4377 11.3984 21.551C11.6175 21.6642 11.8567 21.7331 12.1025 21.7538C12.3483 21.7744 12.5957 21.7463 12.8306 21.6712C13.0655 21.5961 13.2832 21.4753 13.4714 21.3159L21.5905 14.443L21.7723 36.6798C21.7764 37.1771 21.9778 37.6524 22.3323 38.0011C22.6868 38.3498 23.1653 38.5435 23.6626 38.5394C24.1598 38.5353 24.6351 38.3339 24.9839 37.9794C25.3326 37.6249 25.5263 37.1464 25.5222 36.6491Z" fill="#231F20"/>
</svg>
