<svg width="34" height="34" viewBox="0 0 34 34" fill="none" xmlns="http://www.w3.org/2000/svg">
<path d="M0.527251 33.4667L0.533496 33.473C0.699094 33.6398 0.896033 33.7722 1.11299 33.8627C1.32995 33.9531 1.56264 33.9998 1.79769 34C1.99548 33.9998 2.1919 33.9672 2.37912 33.9035L12.5724 30.4456L32.1326 10.8852C33.3283 9.68933 34.0001 8.06741 34 6.37625C33.9999 4.68509 33.328 3.06322 32.1322 1.86744C30.9363 0.671666 29.3144 -7.40327e-05 27.6233 6.11974e-09C25.9321 7.40449e-05 24.3103 0.671956 23.1145 1.86784L3.55431 21.4282L0.0967829 31.6213C-0.0121291 31.9383 -0.0295134 32.2795 0.0466232 32.6059C0.12276 32.9323 0.289335 33.2307 0.527251 33.4667ZM24.7388 3.49203C25.5049 2.73182 26.541 2.30614 27.6202 2.30821C28.6994 2.31029 29.7339 2.73994 30.497 3.50309C31.2601 4.26624 31.6897 5.3007 31.6918 6.37995C31.6938 7.45919 31.2681 8.49527 30.5079 9.26131L27.9357 11.8335L22.1665 6.06424L24.7388 3.49203ZM5.5577 22.6733L20.5423 7.68844L26.3115 13.4577L11.3268 28.4425L2.59589 31.4043L5.5577 22.6733Z" fill="black"/>
</svg>
