<svg width="70" height="70" viewBox="0 0 70 70" fill="none" xmlns="http://www.w3.org/2000/svg">
<path d="M64.339 22.9987H53.0623C50.6017 22.9987 48.6694 25.6858 47.9297 29.7617C40.1251 28.4786 30.992 28.4786 22.025 29.7768C21.2853 25.7009 19.3379 22.9987 16.8622 22.9987H5.49493C2.30968 22.9987 0 27.4369 0 33.5659V36.4341C0 42.5631 2.30968 47.0013 5.49493 47.0013H16.8773C19.3228 47.0013 21.2551 44.3746 22.0099 40.3893C26.8104 40.812 31.9884 41.2045 37.0908 41.2045C40.8195 41.2045 44.518 40.9931 47.9901 40.4497C48.76 44.4048 50.6621 47.0013 53.0774 47.0013H64.3541C67.5695 47.0013 70 42.4574 70 36.4341V33.5659C69.9849 27.5426 67.5545 22.9987 64.339 22.9987ZM20.1078 36.4341H20.0927C20.0927 41.3252 18.3869 44.7369 16.8622 44.7369H5.49493C3.97024 44.7369 2.26439 41.3252 2.26439 36.4341V33.5659C2.26439 28.6748 3.97024 25.2631 5.49493 25.2631H16.8773C18.402 25.2631 20.1078 28.6748 20.1078 33.5659V36.4341ZM22.2967 38.14C22.342 37.5814 22.3571 37.0229 22.3571 36.4341V33.5659C22.3571 33.0375 22.342 32.5243 22.3118 32.0261C31.1128 30.7429 40.0496 30.7429 47.6731 32.011C47.6429 32.5092 47.6278 33.0375 47.6278 33.5659V36.4341C47.6278 37.038 47.658 37.6267 47.6882 38.2004C39.7326 39.4684 30.4788 38.8646 22.2967 38.14ZM67.7205 36.4341C67.7205 41.5819 65.758 44.7369 64.339 44.7369H53.0623C51.5527 44.7369 49.8771 41.3252 49.8771 36.4341V33.5659C49.8771 28.6748 51.5527 25.2631 53.0623 25.2631H64.339C65.7429 25.2631 67.7205 28.4182 67.7205 33.5659V36.4341Z" fill="black"/>
<path d="M47.0012 64.339L47.0012 53.0623C47.0012 50.6017 44.3141 48.6694 40.2382 47.9297C41.5214 40.1251 41.5214 30.992 40.2231 22.025C44.299 21.2853 47.0012 19.3379 47.0012 16.8622L47.0012 5.49493C47.0012 2.30968 42.563 -1.94001e-07 36.434 -4.61906e-07L33.5658 -5.8728e-07C27.4368 -8.55186e-07 22.9986 2.30968 22.9986 5.49493L22.9986 16.8773C22.9986 19.3228 25.6253 21.2551 29.6107 22.0099C29.188 26.8104 28.7955 31.9884 28.7955 37.0908C28.7955 40.8195 29.0068 44.518 29.5503 47.9901C25.5951 48.76 22.9986 50.6621 22.9986 53.0774L22.9986 64.3541C22.9986 67.5695 27.5425 70 33.5658 70L36.434 70C42.4573 69.9849 47.0012 67.5545 47.0012 64.339ZM33.5658 20.1078L33.5658 20.0927C28.6747 20.0927 25.263 18.3869 25.263 16.8622L25.263 5.49493C25.263 3.97024 28.6747 2.26439 33.5658 2.26439L36.434 2.26439C41.3251 2.26439 44.7368 3.97024 44.7368 5.49493L44.7368 16.8773C44.7368 18.402 41.3251 20.1078 36.434 20.1078L33.5658 20.1078ZM31.86 22.2967C32.4185 22.342 32.9771 22.3571 33.5658 22.3571L36.434 22.3571C36.9624 22.3571 37.4757 22.342 37.9738 22.3118C39.257 31.1128 39.257 40.0496 37.9889 47.6731C37.4908 47.6429 36.9624 47.6278 36.434 47.6278L33.5658 47.6278C32.962 47.6278 32.3732 47.658 31.7996 47.6882C30.5315 39.7326 31.1354 30.4788 31.86 22.2967ZM33.5658 67.7205C28.4181 67.7205 25.263 65.758 25.263 64.339L25.263 53.0623C25.263 51.5527 28.6747 49.8771 33.5658 49.8771L36.434 49.8771C41.3251 49.8771 44.7368 51.5527 44.7368 53.0623L44.7368 64.339C44.7368 65.7429 41.5818 67.7205 36.434 67.7205L33.5658 67.7205Z" fill="black"/>
</svg>
