<svg width="205" height="230" viewBox="0 0 205 230" fill="none" xmlns="http://www.w3.org/2000/svg">
<path d="M202.297 201.152C201.553 197.703 201.657 194.138 202.407 190.69C202.938 188.247 203.209 185.788 203.209 183.303C203.209 165.853 196.435 149.348 185.533 140.235C181.397 136.776 176.753 134.42 171.726 133.19C161.211 130.617 149.759 127.956 139.065 126.279C137.699 126.064 136.592 125.011 136.258 123.596L136.105 122.949C134.226 115.018 136.834 107.022 140.915 99.9673C145.477 92.0801 152.78 83.9114 155.743 75.2947C156.204 73.955 156.549 72.5724 156.775 71.1954C157.034 69.4245 157.105 67.6105 156.744 65.5702C156.051 61.6211 153.59 57.876 153.59 53.8665V50.3974C153.59 23.6079 129.716 0.108704 102.503 0.108704C75.2911 0.108704 51.4131 23.6079 51.4131 50.3974V53.8649C51.4131 57.8776 48.9474 61.6242 48.2593 65.5774C47.8983 67.6177 47.9698 69.4281 48.2252 71.1954C48.4599 72.6313 48.8243 74.0756 49.3153 75.4717C52.3095 83.9869 59.5838 91.9531 64.139 99.7456C68.2261 106.737 70.8458 114.732 68.9783 122.612L68.7452 123.596C68.408 125.015 67.3045 126.068 65.9354 126.279C55.243 127.956 43.7934 130.618 33.2801 133.188C28.2509 134.418 23.6064 136.775 19.4667 140.235C8.56473 149.351 1.7906 165.853 1.7906 183.303C1.7906 185.786 2.06181 188.246 2.59409 190.69C3.34502 194.138 3.45322 197.704 2.70336 201.152C0.353357 212.086 0.326111 225.83 0.326111 226.408C0.326111 228.391 1.8485 230 3.73191 230C5.61191 230 7.1377 228.391 7.1377 226.408C7.1377 226.336 7.14826 222.372 7.50316 217.143C7.79715 212.811 13.4193 211.427 16.4049 214.579C17.7365 215.984 19.889 215.984 21.2207 214.579C22.5523 213.178 22.5523 210.905 21.2207 209.5C12.73 200.534 8.59879 191.967 8.59879 183.303C8.59879 167.994 14.3818 153.651 23.6967 145.867C31.0668 139.707 40.1228 137.903 50.6365 140.504C50.6436 140.507 50.649 140.506 50.6551 140.506C50.661 140.506 50.6653 140.507 50.6703 140.51C50.674 140.513 50.6794 140.515 50.6838 140.516C60.8788 142.907 79.7923 143.561 90.1574 143.737C95.8451 143.834 98.2121 148.335 100.096 149.93C100.756 150.626 101.628 150.975 102.5 150.975C103.372 150.975 104.244 150.623 104.908 149.922C106.785 148.335 109.158 143.827 114.846 143.73C125.21 143.554 144.121 142.9 154.317 140.51C154.323 140.508 154.328 140.508 154.333 140.504C154.336 140.502 154.342 140.5 154.346 140.499C154.353 140.498 154.359 140.5 154.367 140.497C164.874 137.896 173.937 139.703 181.303 145.86C190.615 153.647 196.398 167.994 196.398 183.303C196.398 191.971 192.267 200.538 183.773 209.5C182.441 210.905 182.441 213.175 183.773 214.579C185.104 215.984 187.257 215.984 188.588 214.579C191.579 211.425 197.201 212.808 197.496 217.144C197.852 222.373 197.862 226.336 197.862 226.408C197.862 228.391 199.388 230 201.268 230C203.152 230 204.674 228.391 204.674 226.408C204.674 225.83 204.647 212.086 202.297 201.152ZM150.045 70.0783C149.591 72.9294 146.775 72.1496 146.775 69.2625V68.8505C146.775 67.6067 147.442 66.3759 148.649 66.076C148.757 66.0494 148.862 66.0276 148.963 66.0119C149.536 65.9229 149.937 66.4182 150.05 66.9873C150.249 67.9926 150.198 69.1171 150.045 70.0783ZM102.5 7.29281C126.085 7.29281 146.775 27.4334 146.775 50.3974V58.2292C146.775 58.8025 146.464 59.2383 145.926 59.4338C145.307 59.6584 144.537 59.5016 144.212 58.9292C138.032 48.0615 133.75 47.5949 136.49 33.1412C136.711 31.963 136.364 30.7453 135.56 29.8976L132.154 26.3055C131.31 25.4111 130.08 25.0555 128.922 25.3608C128.789 25.3967 115.554 28.8451 102.5 28.8451C89.4797 28.8451 76.2107 25.3967 76.0779 25.3608C74.9301 25.0591 73.6938 25.4147 72.8457 26.3055L69.4399 29.8976C68.6362 30.7453 68.2854 31.963 68.5102 33.1412C71.2504 47.5916 66.9714 48.0546 60.7887 58.9288C60.4632 59.5013 59.6838 59.6529 59.0642 59.4299C58.525 59.2358 58.2247 58.8027 58.2247 58.2296V50.3974C58.2247 27.4334 78.9149 7.29281 102.5 7.29281ZM54.9551 70.089C54.8027 69.1274 54.7517 68.0075 54.949 67.0033C55.0619 66.4285 55.4676 65.9288 56.0463 66.0192C56.1426 66.0343 56.2424 66.0549 56.3442 66.0798C57.5554 66.3769 58.2247 67.613 58.2247 68.8602V69.2728C58.2247 72.1615 55.4084 72.9419 54.9551 70.089ZM65.0363 79.1338V76.8579C65.0363 69.4957 66.7259 62.217 70.8191 56.0976C74.6598 50.3556 77.3496 45.7411 75.607 34.1867C75.5564 33.851 75.6593 33.4995 75.8923 33.2526C76.1591 32.9701 76.5513 32.8497 76.9303 32.9353C81.5752 33.9849 91.9629 36.0292 102.5 36.0292C113.037 36.0292 123.425 33.9849 128.07 32.9322C128.449 32.8463 128.841 32.9666 129.108 33.2492C129.341 33.4959 129.444 33.8473 129.393 34.1828C127.651 45.7354 130.341 50.3566 134.179 56.0942C138.273 62.2138 139.964 69.4923 139.964 76.8548V79.1338C139.964 101.566 114.996 118.646 102.5 118.646C91.6934 118.646 65.0363 102.899 65.0363 79.1338ZM114.734 136.549C106.437 136.694 98.5629 136.691 90.2664 136.546C85.302 136.461 75.9318 136.215 67.1149 135.506C65.5772 135.382 65.4125 133.623 66.9367 133.385C71.0407 132.742 74.3477 129.584 75.3524 125.338C76.4739 120.607 82.1794 118.622 86.4562 120.935C92.282 124.087 98.0031 125.83 102.5 125.83C107.13 125.83 112.923 124.118 118.78 120.992C122.979 118.752 128.554 120.708 129.651 125.338C130.656 129.584 133.963 132.745 138.063 133.385C139.588 133.623 139.423 135.384 137.885 135.508C129.065 136.218 119.695 136.465 114.734 136.549Z" fill="black"/>
<path d="M161.965 208.85C154.374 204.529 152.027 189.503 153.56 176.565C153.791 174.596 152.47 172.8 150.603 172.556C148.734 172.312 147.038 173.709 146.803 175.674C145.736 184.678 146.265 191.75 147.564 197.273C148.526 201.366 147.843 205.834 144.95 208.886C143.046 210.89 140.417 212.04 137.726 212.04H112.717C106.791 212.04 105.906 204.5 105.906 198.573V183.303C105.906 181.32 104.383 179.711 102.5 179.711C100.617 179.711 99.0941 181.32 99.0941 183.303V198.557C99.0941 204.5 98.2255 212.04 92.2825 212.04H67.2738C64.5423 212.04 61.9743 210.919 60.0466 208.886C57.1553 205.834 56.4735 201.367 57.4357 197.275C58.7344 191.752 59.2643 184.679 58.1973 175.674C57.9657 173.709 56.2764 172.308 54.3964 172.556C52.5301 172.8 51.2052 174.596 51.4402 176.565C53.0239 189.923 50.2448 204.73 43.0415 208.846C41.3863 209.744 40.7188 211.885 41.5532 213.645C42.4046 215.434 44.4583 216.131 46.1238 215.251C46.9403 214.82 48.0072 215.314 48.0072 216.237V226.408C48.0072 228.391 49.5295 230 51.413 230C53.2964 230 54.8188 228.391 54.8188 226.408C54.8188 221.048 60.6907 218.788 66.0362 219.179C66.438 219.208 66.8505 219.224 67.2738 219.224H92.2825C98.1027 219.224 106.897 219.224 112.717 219.224H137.726C138.145 219.224 138.554 219.208 138.952 219.179C144.315 218.781 150.181 221.031 150.181 226.408C150.181 228.391 151.703 230 153.587 230C155.47 230 156.993 228.391 156.993 226.408V216.238C156.993 215.317 158.062 214.822 158.876 215.251C160.542 216.131 162.548 215.416 163.399 213.678C164.257 211.939 163.603 209.78 161.965 208.85Z" fill="black"/>
<path d="M102.5 172.527C104.383 172.527 105.906 170.918 105.906 168.935V161.751C105.906 159.768 104.383 158.159 102.5 158.159C100.617 158.159 99.0941 159.768 99.0941 161.751V168.935C99.0941 170.918 100.617 172.527 102.5 172.527Z" fill="black"/>
</svg>
